<svg width="14" height="14" viewBox="0 0 14 14" fill="none" xmlns="http://www.w3.org/2000/svg">
<path fill-rule="evenodd" clip-rule="evenodd" d="M6.99992 1.66671C4.0544 1.66671 1.66659 4.05452 1.66659 7.00004C1.66659 9.94556 4.0544 12.3334 6.99992 12.3334C9.94544 12.3334 12.3333 9.94556 12.3333 7.00004C12.3333 4.05452 9.94544 1.66671 6.99992 1.66671ZM0.333252 7.00004C0.333252 3.31814 3.31802 0.333374 6.99992 0.333374C10.6818 0.333374 13.6666 3.31814 13.6666 7.00004C13.6666 10.6819 10.6818 13.6667 6.99992 13.6667C3.31802 13.6667 0.333252 10.6819 0.333252 7.00004Z" fill="#F98F25"/>
<path fill-rule="evenodd" clip-rule="evenodd" d="M6.99992 6.33337C7.36811 6.33337 7.66659 6.63185 7.66659 7.00004V9.00004C7.66659 9.36823 7.36811 9.66671 6.99992 9.66671C6.63173 9.66671 6.33325 9.36823 6.33325 9.00004V7.00004C6.33325 6.63185 6.63173 6.33337 6.99992 6.33337Z" fill="#F98F25"/>
<path fill-rule="evenodd" clip-rule="evenodd" d="M6.33325 5.00004C6.33325 4.63185 6.63173 4.33337 6.99992 4.33337H7.00659C7.37478 4.33337 7.67325 4.63185 7.67325 5.00004C7.67325 5.36823 7.37478 5.66671 7.00659 5.66671H6.99992C6.63173 5.66671 6.33325 5.36823 6.33325 5.00004Z" fill="#F98F25"/>
</svg>
